# xmcd
#
# Track frame offsets:
#	150
#	21623
#	42587
#	68646
#	105076
#	129200
#	149608
#	180466
#	202183
#	212770
#	268012
#	292729
#
# Disc length: 4422 seconds
#
# Revision: 0
# Processed by: cddbd v1.4PL0 Copyright (c) Steve Scherf et al.
# Submitted via: EasyCDDAExtractor 4.5.0.2
#
DISCID=b411440c
DTITLE=Soulwork - Soulwork Squares off With The Super Villian (Live!)
DYEAR=2002
DGENRE=Funk
TTITLE0=knew
TTITLE1=we'll be
TTITLE2=everytime
TTITLE3=better days
TTITLE4=face
TTITLE5=hell...
TTITLE6=slopbucket fingers
TTITLE7=gray
TTITLE8=the soul intro
TTITLE9=light
TTITLE10=bumbo
TTITLE11=chocolate chicken gravy
EXTD=
EXTT0=
EXTT1=
EXTT2=
EXTT3=
EXTT4=
EXTT5=
EXTT6=
EXTT7=
EXTT8=
EXTT9=
EXTT10=
EXTT11=
PLAYORDER=
